<svg width="1600" height="1000" viewBox="0 0 1600 1000" fill="none" xmlns="http://www.w3.org/2000/svg">
  <rect width="1600" height="1000" fill="#0B1220"/>
  <g opacity="0.55">
    <rect x="220" y="140" width="520" height="720" rx="36" fill="#111A2D"/>
    <rect x="900" y="200" width="480" height="640" rx="32" fill="#0F172A"/>
  </g>
  <g opacity="0.32">
    <rect x="260" y="200" width="440" height="64" rx="16" fill="#1F2937"/>
    <rect x="260" y="292" width="440" height="40" rx="12" fill="#162132"/>
    <rect x="260" y="348" width="440" height="40" rx="12" fill="#162132"/>
    <rect x="260" y="404" width="440" height="40" rx="12" fill="#162132"/>
    <rect x="260" y="460" width="440" height="40" rx="12" fill="#162132"/>
    <rect x="260" y="516" width="440" height="40" rx="12" fill="#162132"/>
    <rect x="260" y="572" width="440" height="40" rx="12" fill="#162132"/>
    <rect x="260" y="628" width="440" height="40" rx="12" fill="#162132"/>
  </g>
  <g opacity="0.28">
    <rect x="940" y="260" width="400" height="56" rx="16" fill="#1C2335"/>
    <rect x="940" y="336" width="400" height="32" rx="10" fill="#141E2F"/>
    <rect x="940" y="384" width="400" height="32" rx="10" fill="#141E2F"/>
    <rect x="940" y="432" width="400" height="32" rx="10" fill="#141E2F"/>
    <rect x="940" y="480" width="400" height="32" rx="10" fill="#141E2F"/>
    <rect x="940" y="528" width="400" height="32" rx="10" fill="#141E2F"/>
    <rect x="940" y="576" width="400" height="32" rx="10" fill="#141E2F"/>
    <rect x="940" y="624" width="400" height="32" rx="10" fill="#141E2F"/>
    <rect x="940" y="672" width="400" height="32" rx="10" fill="#141E2F"/>
  </g>
  <g opacity="0.18">
    <rect x="420" y="180" width="120" height="16" rx="8" fill="#23314A"/>
    <rect x="420" y="740" width="180" height="20" rx="10" fill="#23314A"/>
    <rect x="1060" y="220" width="160" height="20" rx="10" fill="#1F2B42"/>
    <rect x="1060" y="720" width="200" height="20" rx="10" fill="#1F2B42"/>
  </g>
  <rect x="0.5" y="0.5" width="1599" height="999" stroke="#141F33" stroke-opacity="0.35"/>
</svg>
